<?xml version="1.0" encoding="utf-8"?>
<!-- Generator: Adobe Illustrator 19.2.1, SVG Export Plug-In . SVG Version: 6.00 Build 0)  -->
<svg version="1.1" id="Layer_1" xmlns="http://www.w3.org/2000/svg" xmlns:xlink="http://www.w3.org/1999/xlink" x="0px" y="0px"
	 viewBox="0 0 595.2 133.4" style="enable-background:new 0 0 595.2 133.4;" xml:space="preserve">
<style type="text/css">
	.st0{fill:#3D5A98;}
	.st1{fill:#FFFFFF;}
	.st2{opacity:0.15;fill:none;stroke:#000000;stroke-width:2;stroke-miterlimit:10;}
</style>
<title>facebooksignin</title>
<path class="st0" d="M589.2,133.4H6c-3.3,0-6-2.7-6-6V6c0-3.3,2.7-6,6-6h583.2c3.3,0,6,2.7,6,6v121.4c0.1,3.3-2.5,5.9-5.8,6
	C589.3,133.4,589.3,133.4,589.2,133.4z"/>
<path class="st1" d="M64.9,98.9v-31h10.4l1.6-12h-12v-7.8c0-3.5,1-5.9,6-5.9h6.4V31.5C74.2,31.2,71.1,31,68,31
	c-9.2,0-15.5,5.6-15.5,16v8.9H42v12h10.4v31H64.9z"/>
<path class="st1" d="M161.7,71c0.1,2.4-0.9,4.7-2.8,6.1c-1.9,1.5-4.5,2.2-7.8,2.2c-2.8,0.1-5.6-0.4-8.1-1.5v-4.5
	c1.4,0.6,2.8,1.1,4.2,1.5c1.4,0.3,2.8,0.5,4.2,0.5c1.5,0.1,3-0.3,4.2-1.1c0.9-0.7,1.4-1.8,1.4-2.9c0-1.1-0.4-2.1-1.2-2.8
	c-1.6-1.2-3.3-2.1-5.1-2.7c-2.2-0.7-4.1-2-5.6-3.7c-1.1-1.4-1.7-3.2-1.6-5c-0.1-2.2,0.9-4.4,2.6-5.8c2-1.5,4.5-2.2,7-2.1
	c2.9,0,5.7,0.6,8.4,1.8l-1.5,3.9c-2.2-1-4.6-1.6-7-1.6c-1.3-0.1-2.5,0.3-3.5,1c-0.8,0.7-1.2,1.6-1.2,2.7c0,0.7,0.1,1.4,0.5,2
	c0.4,0.6,0.9,1.1,1.6,1.5c1.3,0.7,2.6,1.4,4,1.9c1.7,0.6,3.3,1.5,4.7,2.5c0.9,0.7,1.7,1.6,2.2,2.6C161.5,68.7,161.8,69.8,161.7,71z"
	/>
<path class="st1" d="M166.6,50.9c0-0.7,0.2-1.4,0.7-1.9c0.5-0.5,1.3-0.7,2-0.7c0.7,0,1.4,0.2,1.9,0.7c0.5,0.5,0.7,1.2,0.7,1.9
	c0,0.7-0.2,1.4-0.7,1.9c-0.5,0.5-1.2,0.7-1.9,0.7c-0.7,0.1-1.5-0.2-2-0.7C166.8,52.3,166.6,51.6,166.6,50.9z M171.6,78.9h-4.7V56.8
	h4.7V78.9z"/>
<path class="st1" d="M197,56.8v2.6l-3.8,0.7c0.4,0.5,0.7,1.1,0.9,1.7c0.2,0.7,0.3,1.4,0.3,2.2c0.1,2.1-0.8,4.1-2.4,5.4
	c-1.9,1.4-4.2,2.1-6.5,2c-0.6,0-1.3,0-1.9-0.2c-0.9,0.4-1.4,1.2-1.5,2.2c0,0.5,0.3,0.9,0.7,1.1c0.8,0.3,1.7,0.4,2.6,0.4h3.9
	c2-0.1,3.9,0.4,5.6,1.6c1.3,1.1,2,2.8,1.9,4.5c0.1,2.4-1.1,4.6-3.1,5.8c-2.1,1.3-5.1,2-9,2c-3,0-5.3-0.5-6.9-1.6
	c-1.5-1-2.5-2.7-2.4-4.6c0-1.3,0.4-2.5,1.3-3.4c1-1,2.2-1.7,3.6-1.9c-0.6-0.3-1.2-0.7-1.6-1.3c-0.4-0.5-0.6-1.2-0.6-1.9
	c0-0.8,0.2-1.5,0.7-2.1c0.6-0.7,1.3-1.3,2.1-1.7c-1.1-0.5-2.1-1.3-2.7-2.4c-0.7-1.2-1.1-2.5-1.1-3.9c-0.1-2.1,0.7-4.2,2.3-5.6
	c1.8-1.4,4.1-2.1,6.5-2c0.7,0,1.3,0,2,0.1c0.5,0.1,1,0.1,1.6,0.3C189.4,56.8,197,56.8,197,56.8z M179.6,82.4c0,1,0.5,1.9,1.4,2.3
	c1.2,0.6,2.5,0.9,3.9,0.8c2,0.1,3.9-0.3,5.7-1.1c1.1-0.5,1.9-1.7,1.9-2.9c0.1-0.8-0.3-1.6-1-2.1c-1.2-0.5-2.5-0.7-3.8-0.6H184
	c-1.2,0-2.3,0.3-3.2,1C180,80.5,179.6,81.4,179.6,82.4L179.6,82.4z M181.6,64c-0.1,1.2,0.3,2.3,1.1,3.2c0.8,0.8,1.9,1.2,3.1,1.1
	c2.7,0,4.1-1.5,4.1-4.4c0.1-1.2-0.3-2.4-1-3.3c-0.8-0.8-1.9-1.3-3.1-1.2c-1.1-0.1-2.3,0.3-3.1,1.2C181.9,61.5,181.6,62.7,181.6,64
	L181.6,64z"/>
<path class="st1" d="M220.6,78.9h-4.7V65.3c0.1-1.3-0.2-2.7-1-3.8c-0.8-0.9-2-1.4-3.3-1.3c-1.7-0.1-3.3,0.5-4.4,1.8
	c-0.9,1.2-1.4,3.1-1.4,5.9v11h-4.7V56.8h3.7l0.7,2.9h0.2c0.7-1.1,1.7-1.9,2.8-2.4c1.3-0.6,2.7-0.9,4.1-0.9c5.3,0,8,2.7,8,8.1
	L220.6,78.9L220.6,78.9z"/>
<path class="st1" d="M237.5,50.9c0-0.7,0.2-1.4,0.7-1.9c0.5-0.5,1.3-0.7,2-0.7c0.7,0,1.4,0.2,1.9,0.7c0.5,0.5,0.7,1.2,0.7,1.9
	c0,0.7-0.2,1.4-0.7,1.9c-0.5,0.5-1.2,0.7-1.9,0.7c-0.7,0.1-1.5-0.2-2-0.7C237.7,52.3,237.5,51.6,237.5,50.9z M242.5,78.9h-4.7V56.8
	h4.7V78.9z"/>
<path class="st1" d="M268.7,78.9H264V65.3c0.1-1.3-0.2-2.7-1-3.8c-0.8-0.9-2-1.4-3.3-1.3c-1.7-0.1-3.3,0.5-4.4,1.8
	c-0.9,1.2-1.4,3.1-1.4,5.9v11h-4.7V56.8h3.7l0.7,2.9h0.2c0.7-1.1,1.7-1.9,2.8-2.4c1.3-0.6,2.7-0.9,4.1-0.9c5.3,0,8,2.7,8,8.1
	L268.7,78.9L268.7,78.9z"/>
<path class="st1" d="M304.1,78.9l-2.9-10.3c-0.3-1.1-1-3.6-1.9-7.6h-0.2c-0.8,3.6-1.4,6.2-1.8,7.7l-3,10.3h-5.2L283,56.8h4.8
	l2.8,10.9c0.7,2.7,1.1,5,1.4,6.9h0.1c0.1-1,0.3-2.1,0.6-3.3s0.5-2.2,0.7-2.8l3.4-11.7h5.2l3.3,11.7c0.2,0.7,0.4,1.7,0.8,3
	c0.2,1,0.4,2.1,0.5,3.1h0.2c0.3-2.3,0.8-4.6,1.4-6.9l2.9-10.9h4.7l-6.3,22.1H304.1z"/>
<path class="st1" d="M319.1,50.9c0-0.7,0.2-1.4,0.7-1.9c0.5-0.5,1.3-0.7,2-0.7c0.7,0,1.4,0.2,1.9,0.7c0.5,0.5,0.7,1.2,0.7,1.9
	c0,0.7-0.2,1.4-0.7,1.9c-0.5,0.5-1.2,0.7-1.9,0.7c-0.7,0.1-1.5-0.2-2-0.7C319.3,52.3,319.1,51.6,319.1,50.9z M324.1,78.9h-4.7V56.8
	h4.7V78.9z"/>
<path class="st1" d="M339.1,75.5c1.2,0,2.3-0.2,3.4-0.5v3.5c-0.6,0.3-1.3,0.5-2,0.6c-0.8,0.2-1.7,0.2-2.5,0.2c-4.5,0-6.7-2.3-6.7-7
	v-12h-3v-2.1l3.2-1.7l1.6-4.7h2.9v4.9h6.3v3.6H336v11.8c-0.1,0.9,0.2,1.8,0.9,2.5C337.5,75.3,338.3,75.6,339.1,75.5z"/>
<path class="st1" d="M366.4,78.9h-4.7V65.3c0.1-1.3-0.2-2.7-1-3.8c-0.8-0.9-2-1.4-3.3-1.3c-1.6-0.1-3.3,0.5-4.4,1.8
	c-0.9,1.2-1.4,3.2-1.4,5.9v10.9H347V47.8h4.7v7.9c0,1.4-0.1,2.7-0.2,4.1h0.3c0.6-1.1,1.6-1.9,2.7-2.5c1.2-0.6,2.6-0.9,4-0.9
	c5.3,0,8,2.7,8,8.1V78.9z"/>
<path class="st1" d="M388.9,78.9h-4.8V49.7h16.5v4h-11.8v9.2h11v4h-11V78.9z"/>
<path class="st1" d="M419.3,78.9l-0.9-3h-0.2c-0.8,1.1-1.9,2.1-3.2,2.7c-1.3,0.5-2.7,0.8-4.2,0.7c-1.9,0.1-3.7-0.5-5.1-1.8
	c-1.3-1.3-2-3.2-1.8-5c-0.1-2,0.8-4,2.5-5.2c1.7-1.2,4.3-1.8,7.8-1.9l3.8-0.1v-1.2c0.1-1.1-0.3-2.3-1-3.2c-0.8-0.8-1.9-1.1-3.1-1
	c-1.1,0-2.2,0.2-3.3,0.5c-1,0.3-2,0.7-3,1.2l-1.5-3.4c1.2-0.6,2.6-1.1,3.9-1.4c1.3-0.3,2.7-0.5,4-0.5c2.8,0,4.9,0.6,6.4,1.8
	s2.2,3.2,2.1,5.8v14.9H419.3L419.3,78.9z M412.3,75.7c1.5,0.1,3-0.4,4.1-1.4c1.1-1,1.6-2.5,1.5-4v-1.9l-2.8,0.1
	c-1.7-0.1-3.3,0.3-4.8,1.1c-1,0.7-1.6,1.8-1.5,3c0,0.9,0.3,1.7,0.9,2.3C410.4,75.5,411.3,75.8,412.3,75.7L412.3,75.7z"/>
<path class="st1" d="M438.2,79.3c-3.3,0-5.9-1-7.6-2.9c-1.8-2-2.6-4.8-2.6-8.4c0-3.7,0.9-6.6,2.7-8.6c1.8-2,4.5-3,7.9-3
	c2.2,0,4.3,0.4,6.3,1.3l-1.4,3.8c-1.6-0.7-3.2-1.1-4.9-1.2c-3.8,0-5.8,2.5-5.8,7.6c-0.1,2,0.4,3.9,1.4,5.6c1,1.3,2.6,2,4.2,1.9
	c2.1,0,4.1-0.5,6-1.5V78c-0.8,0.5-1.7,0.8-2.7,1.1C440.5,79.3,439.3,79.4,438.2,79.3z"/>
<path class="st1" d="M459.2,79.3c-3.4,0-6.1-1-8.1-3s-2.9-4.8-2.9-8.3c0-3.6,0.9-6.5,2.7-8.5c1.9-2.1,4.6-3.2,7.4-3.1
	c2.6-0.1,5.1,0.8,6.9,2.7c1.8,2,2.7,4.6,2.5,7.3v2.5h-14.8c-0.1,1.8,0.6,3.6,1.7,5c1.2,1.2,2.9,1.8,4.6,1.7c1.2,0,2.5-0.1,3.6-0.4
	c1.2-0.3,2.5-0.7,3.6-1.2v3.8c-1.1,0.5-2.3,0.9-3.5,1.2C461.9,79.2,460.6,79.4,459.2,79.3z M458.4,60c-1.3-0.1-2.6,0.5-3.6,1.4
	c-1,1.2-1.6,2.6-1.6,4.1h10c0.1-1.5-0.4-3-1.3-4.2C460.9,60.4,459.7,59.9,458.4,60z"/>
<path class="st1" d="M484.5,56.4c2.5-0.1,4.9,1,6.5,3c1.5,2,2.3,4.8,2.3,8.4c0,3.6-0.8,6.4-2.3,8.5c-3,3.6-8.4,4-12,1
	c-0.4-0.3-0.7-0.6-1-1h-0.3l-0.9,2.6h-3.5V47.8h4.7v7.4c0,0.5,0,1.4-0.1,2.4c-0.1,1.1-0.1,1.8-0.1,2.1h0.2
	C479.3,57.5,481.8,56.3,484.5,56.4z M483.2,60.2c-1.6-0.1-3.1,0.5-4.1,1.7c-0.8,1.1-1.3,3-1.3,5.6v0.3c0,2.7,0.4,4.6,1.3,5.9
	c1,1.3,2.6,2,4.2,1.8c1.5,0.1,3-0.7,3.8-2c1-1.7,1.4-3.7,1.3-5.7C488.4,62.7,486.7,60.2,483.2,60.2z"/>
<path class="st1" d="M518.3,67.8c0,3.6-0.9,6.4-2.8,8.5c-2,2.1-4.9,3.2-7.8,3c-1.9,0-3.8-0.4-5.5-1.4c-1.6-0.9-2.9-2.3-3.7-4
	c-0.9-1.9-1.3-4-1.3-6.1c0-3.6,0.9-6.4,2.8-8.4c1.8-2,4.4-3,7.8-3c2.9-0.1,5.7,1,7.6,3.1C517.5,61.8,518.5,64.8,518.3,67.8z
	 M502.2,67.8c0,5.1,1.9,7.7,5.7,7.7c3.8,0,5.7-2.6,5.6-7.7c0-5.1-1.9-7.6-5.7-7.6c-1.7-0.1-3.3,0.6-4.3,2
	C502.6,63.9,502.1,65.9,502.2,67.8L502.2,67.8z"/>
<path class="st1" d="M543.4,67.8c0,3.6-0.9,6.4-2.8,8.5c-2,2.1-4.9,3.2-7.8,3c-1.9,0-3.8-0.4-5.5-1.4c-1.6-0.9-2.9-2.3-3.7-4
	c-0.9-1.9-1.3-4-1.3-6.1c0-3.6,0.9-6.4,2.8-8.4c1.8-2,4.4-3,7.8-3c2.9-0.1,5.7,1,7.6,3.1C542.5,61.8,543.5,64.8,543.4,67.8z
	 M527.3,67.8c0,5.1,1.9,7.7,5.7,7.7c3.8,0,5.7-2.6,5.6-7.7c0-5.1-1.9-7.6-5.7-7.6c-1.7-0.1-3.3,0.6-4.3,2
	C527.6,63.9,527.2,65.9,527.3,67.8L527.3,67.8z"/>
<path class="st1" d="M553.3,67.2l2.7-3.3l6.7-7.1h5.4l-8.9,9.5l9.5,12.6h-5.5l-7.1-9.7l-2.6,2.1v7.5h-4.6V47.8h4.7V63l-0.2,4.3
	H553.3L553.3,67.2z"/>
<line class="st2" x1="116" y1="0" x2="116" y2="133.4"/>
</svg>
