<svg id="Layer_1" data-name="Layer 1" xmlns="http://www.w3.org/2000/svg" viewBox="0 0 595.2 133.4"><defs><style>.cls-1{fill:#55acee;}.cls-2{fill:#fff;}.cls-3{fill:none;stroke:#000;stroke-miterlimit:10;stroke-width:2px;opacity:0.15;}</style></defs><title>twittersignin</title><path class="cls-1" d="M589.2,133.4H6a6,6,0,0,1-6-6V6A6,6,0,0,1,6,0H589.2a6,6,0,0,1,6,6V127.4a5.89,5.89,0,0,1-5.78,6H589.2Z" transform="translate(0 0)"/><path class="cls-2" d="M179.64,71.9A7.36,7.36,0,0,1,176.82,78Q174,80.28,169,80.28a18.58,18.58,0,0,1-8.13-1.54V74.21a22.12,22.12,0,0,0,4.25,1.48,18.09,18.09,0,0,0,4.19.54,6.67,6.67,0,0,0,4.19-1.08,3.53,3.53,0,0,0,1.35-2.9,3.64,3.64,0,0,0-1.24-2.78,18.69,18.69,0,0,0-5.12-2.7,13.54,13.54,0,0,1-5.65-3.7,7.83,7.83,0,0,1-1.64-5,7,7,0,0,1,2.6-5.77,10.8,10.8,0,0,1,7-2.1A20.53,20.53,0,0,1,179.17,52l-1.5,3.86a18.29,18.29,0,0,0-7-1.64,5.35,5.35,0,0,0-3.52,1,3.32,3.32,0,0,0-1.2,2.67,3.76,3.76,0,0,0,.48,2A4.91,4.91,0,0,0,168,61.46a26.79,26.79,0,0,0,4,1.9,21.7,21.7,0,0,1,4.72,2.5,7.36,7.36,0,0,1,2.2,2.62A7.89,7.89,0,0,1,179.64,71.9Z" transform="translate(0 0)"/><path class="cls-2" d="M184.52,51.9a2.61,2.61,0,0,1,.69-1.94,2.69,2.69,0,0,1,2-.68,2.64,2.64,0,0,1,1.93.68,2.61,2.61,0,0,1,.69,1.94,2.56,2.56,0,0,1-.69,1.89,2.62,2.62,0,0,1-1.93.69,2.67,2.67,0,0,1-2-.69A2.56,2.56,0,0,1,184.52,51.9Zm5,28h-4.7V57.74h4.7V79.9Z" transform="translate(0 0)"/><path class="cls-2" d="M214.93,57.74v2.58l-3.78.7a6.13,6.13,0,0,1,.86,1.72,6.8,6.8,0,0,1,.34,2.16A6.62,6.62,0,0,1,210,70.29a9.88,9.88,0,0,1-6.51,2,10.58,10.58,0,0,1-1.92-.16,2.65,2.65,0,0,0-1.52,2.2,1.22,1.22,0,0,0,.71,1.14,6.14,6.14,0,0,0,2.61.38h3.86a8.59,8.59,0,0,1,5.57,1.56,5.49,5.49,0,0,1,1.9,4.5,6.55,6.55,0,0,1-3.1,5.81q-3.1,2-9,2-4.52,0-6.91-1.6a5.18,5.18,0,0,1-2.38-4.56,4.86,4.86,0,0,1,1.29-3.43,6.92,6.92,0,0,1,3.61-1.93,3.53,3.53,0,0,1-1.53-1.3,3.26,3.26,0,0,1-.61-1.87,3.22,3.22,0,0,1,.7-2.1,8.09,8.09,0,0,1,2.08-1.7,6.16,6.16,0,0,1-2.79-2.41A7.09,7.09,0,0,1,195,64.9a7,7,0,0,1,2.27-5.59,9.56,9.56,0,0,1,6.48-2,15.93,15.93,0,0,1,2,.13,12.57,12.57,0,0,1,1.55.27H215Zm-17.4,25.59a2.59,2.59,0,0,0,1.37,2.34,7.53,7.53,0,0,0,3.85.82,11.65,11.65,0,0,0,5.73-1.1,3.3,3.3,0,0,0,1.88-2.92,2.19,2.19,0,0,0-1-2.05,8.28,8.28,0,0,0-3.83-.61H202a5,5,0,0,0-3.21,1,3.12,3.12,0,0,0-1.23,2.51h0Zm2-18.42a4.45,4.45,0,0,0,1.07,3.2,4,4,0,0,0,3.07,1.12q4.08,0,4.08-4.36a5,5,0,0,0-1-3.33,3.84,3.84,0,0,0-3.07-1.17,4,4,0,0,0-3.09,1.16,4.88,4.88,0,0,0-1,3.37h0Z" transform="translate(0 0)"/><path class="cls-2" d="M238.51,79.9h-4.72V66.26a6,6,0,0,0-1-3.82,4,4,0,0,0-3.27-1.26,5.21,5.21,0,0,0-4.4,1.72q-1.38,1.76-1.38,5.91V79.9H219V57.74h3.68l0.66,2.9h0.24a6.55,6.55,0,0,1,2.84-2.44,9.53,9.53,0,0,1,4.08-.86q8,0,8,8.11V79.9h0Z" transform="translate(0 0)"/><path class="cls-2" d="M255.43,51.9a2.61,2.61,0,0,1,.69-1.94,2.69,2.69,0,0,1,2-.68,2.64,2.64,0,0,1,1.88.62,2.61,2.61,0,0,1,.69,1.94,2.56,2.56,0,0,1-.69,1.89,2.62,2.62,0,0,1-1.93.69,2.67,2.67,0,0,1-2-.69A2.56,2.56,0,0,1,255.43,51.9Zm5,28h-4.71V57.74h4.71V79.9Z" transform="translate(0 0)"/><path class="cls-2" d="M286.62,79.9H281.9V66.26a6,6,0,0,0-1-3.82,4,4,0,0,0-3.27-1.26,5.21,5.21,0,0,0-4.4,1.72q-1.38,1.76-1.38,5.91V79.9h-4.71V57.74h3.68l0.66,2.9h0.24a6.55,6.55,0,0,1,2.84-2.44,9.53,9.53,0,0,1,4.08-.86q8,0,8,8.11V79.9h0Z" transform="translate(0 0)"/><path class="cls-2" d="M322,79.9l-2.86-10.33q-0.55-1.67-1.91-7.67h-0.18q-1.16,5.41-1.84,7.67L312.27,79.9h-5.21l-6.21-22.14h4.8l2.82,10.91a58.74,58.74,0,0,1,1.36,6.93H310q0.2-1.46.61-3.35t0.71-2.83l3.36-11.65h5.17l3.26,11.65q0.3,1,.75,3a23.23,23.23,0,0,1,.53,3.14h0.16a61.33,61.33,0,0,1,1.4-6.89l2.86-10.91h4.72L327.26,79.9H322Z" transform="translate(0 0)"/><path class="cls-2" d="M337,51.9a2.61,2.61,0,0,1,.69-1.94,2.7,2.7,0,0,1,2-.68,2.64,2.64,0,0,1,1.93.68,2.61,2.61,0,0,1,.69,1.94,2.56,2.56,0,0,1-.69,1.89,2.61,2.61,0,0,1-1.93.69,2.67,2.67,0,0,1-2-.69A2.56,2.56,0,0,1,337,51.9Zm5,28h-4.71V57.74H342V79.9Z" transform="translate(0 0)"/><path class="cls-2" d="M357,76.47a11.48,11.48,0,0,0,3.44-.54v3.54a9.46,9.46,0,0,1-2,.57,13.88,13.88,0,0,1-2.55.23q-6.69,0-6.69-7v-12h-3V59.22l3.24-1.72,1.6-4.68h2.9v4.92h6.31V61.3h-6.31V73.15a3.33,3.33,0,0,0,.85,2.51A3.1,3.1,0,0,0,357,76.47Z" transform="translate(0 0)"/><path class="cls-2" d="M384.34,79.9h-4.72V66.26a6,6,0,0,0-1-3.82,4,4,0,0,0-3.27-1.26A5.2,5.2,0,0,0,371,63q-1.39,1.77-1.39,5.94v11H364.9V48.73h4.71v7.91a36.9,36.9,0,0,1-.24,4.06h0.3a6.54,6.54,0,0,1,2.67-2.48,8.62,8.62,0,0,1,4-.88q8,0,8,8.11V79.9Z" transform="translate(0 0)"/><path class="cls-2" d="M412.14,79.9h-4.78V54.71h-8.61v-4.1h22v4.1h-8.61V79.9h0Z" transform="translate(0 0)"/><path class="cls-2" d="M442.89,79.9L440,69.55q-0.49-1.65-1.85-7.65H438q-1.16,5.41-1.84,7.67l-3,10.33H428l-6.21-22.14h4.8l2.82,10.91a58.74,58.74,0,0,1,1.36,6.93h0.12q0.2-1.46.61-3.35t0.71-2.83l3.36-11.65h5.17L444,69.39q0.3,1,.75,3a23.23,23.23,0,0,1,.53,3.14h0.16a61.33,61.33,0,0,1,1.4-6.89l2.86-10.91h4.72L448.18,79.9h-5.29Z" transform="translate(0 0)"/><path class="cls-2" d="M458,51.9a2.61,2.61,0,0,1,.69-1.94,2.7,2.7,0,0,1,2-.68,2.64,2.64,0,0,1,1.93.68,2.61,2.61,0,0,1,.69,1.94,2.56,2.56,0,0,1-.69,1.89,2.61,2.61,0,0,1-1.93.69,2.67,2.67,0,0,1-2-.69A2.56,2.56,0,0,1,458,51.9Zm5,28h-4.71V57.74H463V79.9Z" transform="translate(0 0)"/><path class="cls-2" d="M477.91,76.47a11.48,11.48,0,0,0,3.44-.54v3.54a9.46,9.46,0,0,1-2,.57,13.88,13.88,0,0,1-2.55.23q-6.69,0-6.69-7v-12h-3V59.22l3.24-1.72,1.6-4.68h2.9v4.92h6.31V61.3h-6.31V73.15a3.33,3.33,0,0,0,.85,2.51A3.1,3.1,0,0,0,477.91,76.47Z" transform="translate(0 0)"/><path class="cls-2" d="M494,76.47a11.48,11.48,0,0,0,3.44-.54v3.54a9.46,9.46,0,0,1-2,.57,13.88,13.88,0,0,1-2.55.23q-6.69,0-6.69-7v-12h-3V59.22l3.24-1.72,1.6-4.68h2.9v4.92h6.31V61.3h-6.31V73.15a3.33,3.33,0,0,0,.85,2.51A3.1,3.1,0,0,0,494,76.47Z" transform="translate(0 0)"/><path class="cls-2" d="M511.56,80.28q-5.17,0-8.08-3T500.57,69q0-5.43,2.7-8.53a9.34,9.34,0,0,1,7.43-3.1A9.12,9.12,0,0,1,517.63,60a10.17,10.17,0,0,1,2.54,7.33V69.9H505.41a7.27,7.27,0,0,0,1.74,5,6.06,6.06,0,0,0,4.62,1.73,17.06,17.06,0,0,0,3.65-.37A19.15,19.15,0,0,0,519,75v3.82a14.47,14.47,0,0,1-3.47,1.05A21.39,21.39,0,0,1,511.56,80.28ZM510.7,60.9a4.73,4.73,0,0,0-3.59,1.42,6.77,6.77,0,0,0-1.61,4.14h10a6.14,6.14,0,0,0-1.32-4.15A4.52,4.52,0,0,0,510.7,60.9Z" transform="translate(0 0)"/><path class="cls-2" d="M536.74,57.34a11.37,11.37,0,0,1,2.34.2l-0.45,4.36a8.9,8.9,0,0,0-2.08-.24A6,6,0,0,0,532,63.52a6.65,6.65,0,0,0-1.75,4.78V79.9h-4.71V57.74h3.68l0.62,3.9h0.24a8.78,8.78,0,0,1,2.87-3.14A6.83,6.83,0,0,1,536.74,57.34Z" transform="translate(0 0)"/><path class="cls-2" d="M92.2,43.65a26.9,26.9,0,0,1-8,2.16,13.85,13.85,0,0,0,6.08-7.68,28.65,28.65,0,0,1-8.8,3.36A13.92,13.92,0,0,0,57.4,51a20.65,20.65,0,0,0,.32,3.2A39.46,39.46,0,0,1,29.08,39.73a13.77,13.77,0,0,0-1.92,7,14.17,14.17,0,0,0,6.16,11.6A14.38,14.38,0,0,1,27,56.53v0.16a13.9,13.9,0,0,0,11.12,13.6,14.07,14.07,0,0,1-3.68.48,14.73,14.73,0,0,1-2.64-.24,14,14,0,0,0,13,9.68,27.54,27.54,0,0,1-17.28,5.92c-1.12,0-2.24-.08-3.28-0.16a39.5,39.5,0,0,0,21.28,6.24C71,92.21,85,71,85,52.69a12.39,12.39,0,0,0-.08-1.79A24.28,24.28,0,0,0,92.2,43.65Z" transform="translate(0 0)"/><line class="cls-3" x1="113" x2="113" y2="133.4"/></svg>